<svg width="218" height="41" viewBox="0 0 218 41" fill="none" xmlns="http://www.w3.org/2000/svg">
<path d="M7.77785 18.8655C7.04409 19.4977 6.10577 19.8138 4.96288 19.8138C3.54873 19.8138 2.43697 19.3868 1.62761 18.5326C0.818253 17.6743 0.413574 16.4978 0.413574 15.0031C0.413574 13.3869 0.873841 12.1413 1.79438 11.2663C2.59484 10.5042 3.61321 10.1232 4.84948 10.1232C6.50378 10.1232 7.71337 10.634 8.47826 11.6556C8.90072 12.2292 9.12752 12.8049 9.15865 13.3827H7.10413C6.97072 12.9389 6.7995 12.604 6.59049 12.3779C6.21694 11.9759 5.66329 11.775 4.92953 11.775C4.18243 11.775 3.5932 12.0597 3.16184 12.6291C2.73047 13.1943 2.51479 13.9961 2.51479 15.0345C2.51479 16.0728 2.74159 16.8516 3.19519 17.3708C3.65323 17.8857 4.23357 18.1432 4.9362 18.1432C5.65662 18.1432 6.20583 17.9213 6.58382 17.4775C6.79283 17.2389 6.96627 16.8809 7.10413 16.4036H9.13864C8.96076 17.4126 8.50716 18.2333 7.77785 18.8655Z" fill="white"/>
<path d="M14.4788 15.9263H12.3576V19.5563H10.3497V10.2991H15.1725C15.8618 10.3116 16.391 10.3912 16.7601 10.5377C17.1337 10.6843 17.4494 10.8999 17.7074 11.1846C17.9208 11.4191 18.0898 11.6787 18.2143 11.9634C18.3388 12.2481 18.4011 12.5726 18.4011 12.9368C18.4011 13.3765 18.2832 13.8098 18.0476 14.2369C17.8119 14.6597 17.4227 14.9591 16.8802 15.135C17.3338 15.3066 17.654 15.5515 17.8408 15.8698C18.032 16.1838 18.1276 16.6653 18.1276 17.3142V17.936C18.1276 18.3589 18.1454 18.6457 18.181 18.7964C18.2343 19.0351 18.3588 19.2109 18.5545 19.3239V19.5563H16.2932C16.2309 19.3512 16.1865 19.1858 16.1598 19.0602C16.1064 18.8006 16.0775 18.5347 16.0731 18.2626L16.0597 17.4022C16.0508 16.8118 15.9352 16.4182 15.7129 16.2215C15.495 16.0247 15.0836 15.9263 14.4788 15.9263ZM15.7262 14.2431C16.1353 14.0673 16.3399 13.7198 16.3399 13.2006C16.3399 12.6396 16.142 12.2627 15.7462 12.0701C15.5239 11.9613 15.1903 11.9068 14.7456 11.9068H12.3576V14.3939H14.6856C15.1481 14.3939 15.495 14.3436 15.7262 14.2431Z" fill="white"/>
<path d="M26.6096 15.5118H21.8335V17.892H27.2766V19.5563H19.8256V10.2991H27.0365V11.9383H21.8335V13.904H26.6096V15.5118Z" fill="white"/>
<path d="M34.2244 17.6534H30.6023L29.9219 19.5563H27.774L31.2827 10.2991H33.604L37.0861 19.5563H34.8581L34.2244 17.6534ZM33.6507 16.0582L32.4234 12.4156L31.156 16.0582H33.6507Z" fill="white"/>
<path d="M44.0605 10.2991V11.9383H41.1188V19.5563H39.0509V11.9383H36.0959V10.2991H44.0605Z" fill="white"/>
<path d="M44.698 10.2991H46.7391V19.5563H44.698V10.2991Z" fill="white"/>
<path d="M56.2017 19.5563H54.1472L50.1315 12.9808V19.5563H48.2171V10.2991H50.3717L54.2873 16.7616V10.2991H56.2017V19.5563Z" fill="white"/>
<path d="M63.7432 19.3302C63.2006 19.6442 62.5336 19.8013 61.742 19.8013C60.439 19.8013 59.3717 19.3763 58.5401 18.5263C57.673 17.6722 57.2394 16.5041 57.2394 15.0219C57.2394 13.523 57.6774 12.3214 58.5535 11.417C59.4295 10.5126 60.588 10.0604 62.0288 10.0604C63.2784 10.0604 64.2813 10.3598 65.0372 10.9585C65.7977 11.5531 66.2335 12.2962 66.3447 13.188H64.3235C64.1678 12.5558 63.7876 12.1141 63.1828 11.8629C62.8449 11.7247 62.4691 11.6556 62.0555 11.6556C61.2639 11.6556 60.6124 11.9383 60.101 12.5035C59.5941 13.0645 59.3406 13.9103 59.3406 15.0407C59.3406 16.1796 59.6163 16.9856 60.1677 17.4587C60.7192 17.9318 61.3462 18.1684 62.0488 18.1684C62.7381 18.1684 63.3029 17.982 63.7432 17.6094C64.1834 17.2326 64.4547 16.7406 64.557 16.1335H62.2823V14.5886H66.378V19.5563H65.0172L64.8104 18.4007C64.4147 18.8404 64.0589 19.1502 63.7432 19.3302Z" fill="white"/>
<path d="M10.406 0.00927986H12.4939L9.72565 9.26653H7.76451L6.57715 3.85286L6.23029 2.06296L5.88342 3.85286L4.69606 9.26653H2.78829L0 0.00927986H2.18127L3.48202 5.3099L3.76219 6.78579L4.04902 5.3413L5.15633 0.00927986H7.32425L8.4916 5.3099L8.79177 6.78579L9.09195 5.36642L10.406 0.00927986Z" fill="white"/>
<path d="M20.0388 5.22198H15.2627V7.60223H20.7059V9.26653H13.2549V0.00927986H20.4658V1.64845H15.2627V3.6142H20.0388V5.22198Z" fill="white"/>
<path d="M23.5014 1.36584C23.5014 1.99806 23.3368 2.4963 23.0078 2.86056C22.6831 3.22482 22.2251 3.46138 21.6336 3.57024V2.9108C22.0694 2.78101 22.3696 2.5612 22.5342 2.25137C22.6231 2.06714 22.6609 1.88083 22.6476 1.69242H21.6003V0.0406816H23.5014V1.36584Z" fill="white"/>
<path d="M30.7728 7.36358H27.1507L26.4703 9.26653H24.3224L27.8311 0.00927986H30.1524L33.6345 9.26653H31.4065L30.7728 7.36358ZM30.1991 5.76837L28.9718 2.12576L27.7044 5.76837H30.1991Z" fill="white"/>
<path d="M47.429 22.2279H42.4994V24.357H46.8153V25.9647H42.4994V29.846H40.4582V20.6013H47.429V22.2279Z" fill="white"/>
<path d="M52.6125 30.1035C51.2072 30.1035 50.1333 29.7434 49.3906 29.0233C48.3945 28.1398 47.8964 26.867 47.8964 25.2048C47.8964 23.5091 48.3945 22.2363 49.3906 21.3864C50.1333 20.6662 51.2072 20.3061 52.6125 20.3061C54.0178 20.3061 55.0917 20.6662 55.8344 21.3864C56.8261 22.2363 57.3219 23.5091 57.3219 25.2048C57.3219 26.867 56.8261 28.1398 55.8344 29.0233C55.0917 29.7434 54.0178 30.1035 52.6125 30.1035ZM54.5536 27.6165C55.0295 27.0512 55.2674 26.2474 55.2674 25.2048C55.2674 24.1665 55.0272 23.3647 54.547 22.7994C54.0711 22.23 53.4263 21.9453 52.6125 21.9453C51.7987 21.9453 51.1494 22.2279 50.6647 22.7932C50.18 23.3584 49.9376 24.1623 49.9376 25.2048C49.9376 26.2474 50.18 27.0512 50.6647 27.6165C51.1494 28.1817 51.7987 28.4643 52.6125 28.4643C53.4263 28.4643 54.0734 28.1817 54.5536 27.6165Z" fill="white"/>
<path d="M62.5255 26.2159H60.4042V29.846H58.3964V20.5887H63.2192C63.9085 20.6013 64.4377 20.6809 64.8068 20.8274C65.1803 20.9739 65.4961 21.1896 65.754 21.4743C65.9675 21.7087 66.1365 21.9683 66.261 22.253C66.3855 22.5378 66.4477 22.8622 66.4477 23.2265C66.4477 23.6661 66.3299 24.0995 66.0942 24.5265C65.8585 24.9494 65.4694 25.2488 64.9269 25.4246C65.3805 25.5963 65.7006 25.8412 65.8874 26.1594C66.0786 26.4734 66.1742 26.9549 66.1742 27.6039V28.2257C66.1742 28.6485 66.192 28.9353 66.2276 29.0861C66.281 29.3247 66.4055 29.5006 66.6012 29.6136V29.846H64.3399C64.2776 29.6408 64.2331 29.4755 64.2064 29.3498C64.1531 29.0903 64.1242 28.8244 64.1197 28.5522L64.1064 27.6918C64.0975 27.1015 63.9819 26.7079 63.7595 26.5111C63.5416 26.3143 63.1303 26.2159 62.5255 26.2159ZM63.7729 24.5328C64.182 24.357 64.3866 24.0095 64.3866 23.4903C64.3866 22.9292 64.1887 22.5524 63.7929 22.3598C63.5705 22.251 63.237 22.1965 62.7923 22.1965H60.4042V24.6835H62.7323C63.1947 24.6835 63.5416 24.6333 63.7729 24.5328Z" fill="white"/>
<path d="M7.68446 36.0912H2.90836V38.4715H8.35152V40.1358H0.900523V30.8785H8.11138V32.5177H2.90836V34.4835H7.68446V36.0912Z" fill="white"/>
<path d="M11.0139 40.1358H9.09942V30.8785H12.0878L13.8755 38.1575L15.6499 30.8785H18.6049V40.1358H16.6905V33.8743C16.6905 33.6942 16.6927 33.443 16.6972 33.1206C16.7016 32.7941 16.7038 32.5428 16.7038 32.367L14.8428 40.1358H12.8483L11.0005 32.367C11.0005 32.5428 11.0027 32.7941 11.0072 33.1206C11.0116 33.443 11.0139 33.6942 11.0139 33.8743V40.1358Z" fill="white"/>
<path d="M24.0422 40.3933C22.637 40.3933 21.563 40.0332 20.8204 39.3131C19.8242 38.4296 19.3262 37.1568 19.3262 35.4946C19.3262 33.7989 19.8242 32.5261 20.8204 31.6762C21.563 30.956 22.637 30.5959 24.0422 30.5959C25.4475 30.5959 26.5215 30.956 27.2641 31.6762C28.2558 32.5261 28.7516 33.7989 28.7516 35.4946C28.7516 37.1568 28.2558 38.4296 27.2641 39.3131C26.5215 40.0332 25.4475 40.3933 24.0422 40.3933ZM25.9834 37.9063C26.4592 37.341 26.6971 36.5371 26.6971 35.4946C26.6971 34.4563 26.457 33.6545 25.9767 33.0892C25.5009 32.5198 24.856 32.2351 24.0422 32.2351C23.2284 32.2351 22.5792 32.5177 22.0944 33.083C21.6097 33.6482 21.3673 34.4521 21.3673 35.4946C21.3673 36.5371 21.6097 37.341 22.0944 37.9063C22.5792 38.4715 23.2284 38.7541 24.0422 38.7541C24.856 38.7541 25.5031 38.4715 25.9834 37.9063Z" fill="white"/>
<path d="M36.6504 30.8785V32.5177H33.7086V40.1358H31.6408V32.5177H28.6857V30.8785H36.6504Z" fill="white"/>
<path d="M36.878 30.8785H38.9191V40.1358H36.878V30.8785Z" fill="white"/>
<path d="M44.3698 40.3933C42.9645 40.3933 41.8906 40.0332 41.1479 39.3131C40.1518 38.4296 39.6537 37.1568 39.6537 35.4946C39.6537 33.7989 40.1518 32.5261 41.1479 31.6762C41.8906 30.956 42.9645 30.5959 44.3698 30.5959C45.775 30.5959 46.849 30.956 47.5916 31.6762C48.5833 32.5261 49.0792 33.7989 49.0792 35.4946C49.0792 37.1568 48.5833 38.4296 47.5916 39.3131C46.849 40.0332 45.775 40.3933 44.3698 40.3933ZM46.3109 37.9063C46.7867 37.341 47.0246 36.5371 47.0246 35.4946C47.0246 34.4563 46.7845 33.6545 46.3042 33.0892C45.8284 32.5198 45.1836 32.2351 44.3698 32.2351C43.556 32.2351 42.9067 32.5177 42.422 33.083C41.9372 33.6482 41.6949 34.4521 41.6949 35.4946C41.6949 36.5371 41.9372 37.341 42.422 37.9063C42.9067 38.4715 43.556 38.7541 44.3698 38.7541C45.1836 38.7541 45.8306 38.4715 46.3109 37.9063Z" fill="white"/>
<path d="M57.785 40.1358H55.7305L51.7148 33.5603V40.1358H49.8004V30.8785H51.955L55.8706 37.341V30.8785H57.785V40.1358Z" fill="white"/>
<path d="M62.4552 38.7981C62.9399 38.7981 63.3335 38.7478 63.6359 38.6474C64.2096 38.4548 64.4964 38.0968 64.4964 37.5734C64.4964 37.2678 64.3541 37.0312 64.0695 36.8637C63.7849 36.7004 63.3379 36.556 62.7287 36.4304L61.6881 36.2106C60.6653 35.9928 59.9582 35.7563 59.5669 35.5009C58.9043 35.0738 58.573 34.406 58.573 33.4975C58.573 32.6684 58.8931 31.9797 59.5335 31.4312C60.1739 30.8827 61.1144 30.6085 62.3551 30.6085C63.3913 30.6085 64.274 30.8681 65.0033 31.3873C65.7371 31.9022 66.1218 32.6517 66.1574 33.6356H64.1829C64.1473 33.0788 63.8894 32.6831 63.4091 32.4486C63.0889 32.2937 62.6909 32.2163 62.2151 32.2163C61.6859 32.2163 61.2634 32.3167 60.9477 32.5177C60.6319 32.7187 60.4741 32.9992 60.4741 33.3593C60.4741 33.6901 60.6297 33.9371 60.941 34.1004C61.1411 34.2092 61.568 34.3369 62.2217 34.4835L63.9161 34.8666C64.6587 35.034 65.219 35.2581 65.597 35.5386C66.184 35.974 66.4775 36.6041 66.4775 37.429C66.4775 38.2747 66.1329 38.9781 65.4436 39.5392C64.7588 40.096 63.7893 40.3744 62.5353 40.3744C61.2545 40.3744 60.2473 40.1002 59.5135 39.5517C58.7797 38.999 58.4129 38.2412 58.4129 37.2782H60.374C60.4363 37.7011 60.5586 38.0172 60.7409 38.2266C61.0744 38.6076 61.6458 38.7981 62.4552 38.7981Z" fill="white"/>
<path d="M57.1772 0H66.9678V9.21789H57.1772V0Z" fill="white"/>
<path d="M111.932 19.6021V20.7912H97.5417V35.1787H96.3573L96.3574 20.7912L81.9675 20.7912V19.6021H96.3574V5.21458H97.5417V19.6021L111.932 19.6021Z" fill="white"/>
<path d="M207.687 0.616975H200.732V1.92454H203.453V8.01829H204.965V1.92454H207.687V0.616975Z" fill="white"/>
<path d="M217.723 0.616975H215.429L213.287 6.36533L211.12 0.616975H208.801V8.01829H210.263V2.17125L212.455 8.01829H214.068L216.261 2.17125V8.01829H217.723V0.616975Z" fill="white"/>
<path fill-rule="evenodd" clip-rule="evenodd" d="M160.734 32.0183V23.8219H140.442V32.0183H126.931V8.01829H140.442V16.2147H160.734V8.01829L193.656 8.01936C201.31 7.93008 206.993 13.4653 206.931 20.0183C206.993 26.5356 201.31 32.1065 193.656 32.0172L160.734 32.0183ZM191.623 24.4108C194.444 24.4108 196.041 22.4288 196.041 20.0183C196.041 17.5899 194.444 15.6258 191.623 15.6258H179.717V24.4108H191.623Z" fill="white"/>
</svg>
