<svg width="981" height="624" viewBox="0 0 981 624" fill="none" xmlns="http://www.w3.org/2000/svg">
<path d="M115.914 291.13C105.253 300.886 91.6196 305.765 75.0144 305.765C54.4678 305.765 38.3148 299.174 26.5555 285.993C14.7961 272.748 8.91643 254.592 8.91643 231.526C8.91643 206.585 15.6038 187.363 28.9784 173.86C40.6085 162.1 55.4047 156.221 73.3668 156.221C97.4024 156.221 114.977 164.103 126.09 179.868C132.228 188.72 135.523 197.604 135.976 206.521H106.125C104.187 199.672 101.699 194.503 98.6623 191.014C93.2349 184.811 85.1907 181.71 74.5298 181.71C63.675 181.71 55.1139 186.104 48.8466 194.891C42.5792 203.613 39.4455 215.986 39.4455 232.01C39.4455 248.034 42.7407 260.052 49.3311 268.064C55.9862 276.011 64.418 279.985 74.6267 279.985C85.0938 279.985 93.0734 276.56 98.5654 269.711C101.602 266.028 104.122 260.504 106.125 253.138H135.685C133.1 268.71 126.51 281.374 115.914 291.13ZM213.273 245.773H182.454V301.791H153.281V158.934H223.353C233.368 159.128 241.056 160.356 246.419 162.617C251.847 164.879 256.434 168.206 260.182 172.6C263.283 176.218 265.738 180.224 267.547 184.617C269.356 189.011 270.261 194.018 270.261 199.64C270.261 206.424 268.549 213.111 265.124 219.702C261.7 226.227 256.046 230.847 248.164 233.561C254.754 236.21 259.406 239.99 262.12 244.9C264.898 249.746 266.287 257.177 266.287 267.191V276.786C266.287 283.312 266.546 287.738 267.063 290.064C267.838 293.747 269.647 296.461 272.49 298.205V301.791H239.635C238.73 298.625 238.084 296.073 237.697 294.135C236.921 290.129 236.501 286.026 236.437 281.826L236.243 268.548C236.114 259.438 234.434 253.364 231.203 250.328C228.037 247.291 222.061 245.773 213.273 245.773ZM231.397 219.799C237.341 217.085 240.313 211.722 240.313 203.71C240.313 195.052 237.438 189.237 231.688 186.265C228.457 184.585 223.611 183.745 217.15 183.745H182.454V222.125H216.278C222.997 222.125 228.037 221.349 231.397 219.799ZM389.524 239.376H320.131V276.108H399.216V301.791H290.959V158.934H395.727V184.23H320.131V214.565H389.524V239.376ZM500.162 272.425H447.535L437.65 301.791H406.442L457.421 158.934H491.148L541.739 301.791H509.369L500.162 272.425ZM491.827 247.808L473.994 191.596L455.579 247.808H491.827ZM643.073 158.934V184.23H600.332V301.791H570.287V184.23H527.353V158.934H643.073ZM652.334 158.934H681.991V301.791H652.334V158.934ZM819.475 301.791H789.624L731.279 200.318V301.791H703.464V158.934H734.768L791.659 258.663V158.934H819.475V301.791ZM929.046 298.302C921.163 303.148 911.472 305.571 899.971 305.571C881.039 305.571 865.533 299.013 853.45 285.897C840.851 272.716 834.551 254.689 834.551 231.816C834.551 208.685 840.915 190.142 853.644 176.186C866.373 162.229 883.204 155.251 904.138 155.251C922.294 155.251 936.864 159.871 947.848 169.111C958.897 178.285 965.229 189.754 966.844 203.516H937.478C935.216 193.76 929.692 186.943 920.905 183.067C915.994 180.935 910.535 179.868 904.526 179.868C893.025 179.868 883.559 184.23 876.129 192.952C868.763 201.61 865.08 214.662 865.08 232.107C865.08 249.682 869.086 262.119 877.098 269.42C885.11 276.722 894.22 280.372 904.429 280.372C914.444 280.372 922.649 277.497 929.046 271.747C935.443 265.931 939.384 258.34 940.87 248.971H907.821V225.129H967.329V301.791H947.557L944.553 283.958C938.802 290.742 933.633 295.524 929.046 298.302Z" fill="white"/>
<path d="M154.099 0.143206H184.435L144.214 143H115.72L98.4685 59.4569L93.4287 31.8353L88.389 59.4569L71.1376 143H43.4192L2.90753 0.143206H34.5996L53.4986 81.9418L57.5692 104.717L61.7366 82.4264L77.825 0.143206H109.323L126.284 81.9418L130.645 104.717L135.006 82.8141L154.099 0.143206ZM294.056 80.585H224.663V117.317H303.748V143H195.491V0.143206H300.259V25.4387H224.663V55.774H294.056V80.585ZM344.364 21.0774C344.364 30.8338 341.974 38.5226 337.192 44.1439C332.476 49.7651 325.821 53.4157 317.227 55.0956V44.9192C323.559 42.9162 327.921 39.5241 330.311 34.7429C331.604 31.8999 332.153 29.0247 331.959 26.1172H316.743V0.627795H344.364V21.0774ZM450.012 113.634H397.386L387.501 143H356.293L407.272 0.143206H440.999L491.59 143H459.22L450.012 113.634ZM441.678 89.0168L423.845 32.8045L405.43 89.0168H441.678Z" fill="white"/>
<path d="M692.013 343.019H620.391V375.874H683.097V400.685H620.391V460.58H590.734V317.917H692.013V343.019ZM767.326 464.554C746.909 464.554 731.305 458.997 720.515 447.884C706.042 434.251 698.805 414.609 698.805 388.958C698.805 362.79 706.042 343.148 720.515 330.032C731.305 318.919 746.909 313.362 767.326 313.362C787.744 313.362 803.347 318.919 814.138 330.032C828.546 343.148 835.75 362.79 835.75 388.958C835.75 414.609 828.546 434.251 814.138 447.884C803.347 458.997 787.744 464.554 767.326 464.554ZM795.529 426.174C802.443 417.452 805.9 405.046 805.9 388.958C805.9 372.934 802.411 360.561 795.432 351.838C788.519 343.051 779.15 338.658 767.326 338.658C755.502 338.658 746.069 343.019 739.026 351.741C731.984 360.464 728.462 372.869 728.462 388.958C728.462 405.046 731.984 417.452 739.026 426.174C746.069 434.897 755.502 439.258 767.326 439.258C779.15 439.258 788.551 434.897 795.529 426.174ZM911.354 404.562H880.534V460.58H851.362V317.723H921.433C931.448 317.917 939.137 319.145 944.5 321.406C949.927 323.668 954.515 326.995 958.262 331.389C961.363 335.007 963.819 339.013 965.628 343.406C967.437 347.8 968.342 352.808 968.342 358.429C968.342 365.213 966.629 371.9 963.205 378.491C959.78 385.017 954.127 389.636 946.244 392.35C952.835 394.999 957.487 398.779 960.2 403.689C962.979 408.535 964.368 415.966 964.368 425.98V435.575C964.368 442.101 964.626 446.527 965.143 448.853C965.919 452.536 967.728 455.25 970.571 456.994V460.58H937.716C936.811 457.414 936.165 454.862 935.777 452.924C935.002 448.918 934.582 444.815 934.517 440.615L934.323 427.337C934.194 418.227 932.514 412.153 929.284 409.117C926.118 406.08 920.141 404.562 911.354 404.562ZM929.478 378.588C935.422 375.874 938.394 370.511 938.394 362.499C938.394 353.841 935.519 348.026 929.768 345.054C926.538 343.374 921.692 342.534 915.231 342.534H880.534V380.914H914.358C921.078 380.914 926.118 380.138 929.478 378.588Z" fill="white"/>
<path d="M114.557 556.956H45.1637V593.688H124.249V619.371H15.9914V476.514H120.76V501.81H45.1637V532.145H114.557V556.956ZM162.93 619.371H135.115V476.514H178.534L204.508 588.842L230.288 476.514H273.223V619.371H245.407V522.744C245.407 519.966 245.44 516.089 245.504 511.114C245.569 506.074 245.601 502.198 245.601 499.484L218.561 619.371H189.583L162.737 499.484C162.737 502.198 162.769 506.074 162.833 511.114C162.898 516.089 162.93 519.966 162.93 522.744V619.371ZM352.222 623.345C331.805 623.345 316.201 617.788 305.411 606.675C290.938 593.042 283.702 573.4 283.702 547.749C283.702 521.581 290.938 501.939 305.411 488.823C316.201 477.71 331.805 472.153 352.222 472.153C372.64 472.153 388.244 477.71 399.034 488.823C413.442 501.939 420.646 521.581 420.646 547.749C420.646 573.4 413.442 593.042 399.034 606.675C388.244 617.788 372.64 623.345 352.222 623.345ZM380.426 584.965C387.339 576.243 390.796 563.837 390.796 547.749C390.796 531.725 387.307 519.352 380.329 510.629C373.415 501.842 364.046 497.449 352.222 497.449C340.398 497.449 330.965 501.81 323.922 510.532C316.88 519.255 313.358 531.661 313.358 547.749C313.358 563.837 316.88 576.243 323.922 584.965C330.965 593.688 340.398 598.049 352.222 598.049C364.046 598.049 373.447 593.688 380.426 584.965ZM535.409 476.514V501.81H492.668V619.371H462.623V501.81H419.689V476.514H535.409ZM538.716 476.514H568.372V619.371H538.716V476.514ZM647.566 623.345C627.148 623.345 611.545 617.788 600.755 606.675C586.281 593.042 579.045 573.4 579.045 547.749C579.045 521.581 586.281 501.939 600.755 488.823C611.545 477.71 627.148 472.153 647.566 472.153C667.983 472.153 683.587 477.71 694.377 488.823C708.786 501.939 715.99 521.581 715.99 547.749C715.99 573.4 708.786 593.042 694.377 606.675C683.587 617.788 667.983 623.345 647.566 623.345ZM675.769 584.965C682.682 576.243 686.139 563.837 686.139 547.749C686.139 531.725 682.65 519.352 675.672 510.629C668.758 501.842 659.39 497.449 647.566 497.449C635.742 497.449 626.308 501.81 619.266 510.532C612.223 519.255 608.702 531.661 608.702 547.749C608.702 563.837 612.223 576.243 619.266 584.965C626.308 593.688 635.742 598.049 647.566 598.049C659.39 598.049 668.791 593.688 675.769 584.965ZM842.479 619.371H812.628L754.284 517.898V619.371H726.468V476.514H757.773L814.664 576.243V476.514H842.479V619.371ZM910.333 598.728C917.376 598.728 923.094 597.952 927.488 596.402C935.822 593.429 939.99 587.905 939.99 579.829C939.99 575.112 937.922 571.461 933.787 568.877C929.652 566.357 923.159 564.128 914.307 562.19L899.188 558.797C884.327 555.438 874.054 551.787 868.368 547.846C858.741 541.255 853.927 530.95 853.927 516.929C853.927 504.136 858.579 493.507 867.883 485.043C877.187 476.579 890.853 472.347 908.879 472.347C923.934 472.347 936.759 476.353 947.356 484.365C958.017 492.312 963.606 503.877 964.122 519.061H935.435C934.918 510.468 931.17 504.362 924.192 500.744C919.54 498.353 913.758 497.158 906.844 497.158C899.155 497.158 893.017 498.708 888.43 501.81C883.842 504.911 881.549 509.24 881.549 514.797C881.549 519.901 883.81 523.713 888.333 526.233C891.24 527.913 897.443 529.884 906.941 532.145L931.558 538.057C942.348 540.642 950.489 544.098 955.981 548.427C964.51 555.147 968.775 564.871 968.775 577.6C968.775 590.651 963.767 601.506 953.752 610.164C943.802 618.757 929.717 623.054 911.496 623.054C892.888 623.054 878.253 618.822 867.592 610.358C856.931 601.829 851.601 590.134 851.601 575.274H880.095C880.999 581.799 882.776 586.677 885.425 589.908C890.271 595.788 898.574 598.728 910.333 598.728Z" fill="white"/>
<rect x="833.648" width="142.249" height="142.249" fill="white"/>
</svg>
